<?xml version="1.0" encoding="UTF-8"?><!DOCTYPE svg PUBLIC "-//W3C//DTD SVG 1.1//EN" "http://www.w3.org/Graphics/SVG/1.1/DTD/svg11.dtd"><svg xmlns="http://www.w3.org/2000/svg" xmlns:xlink="http://www.w3.org/1999/xlink" version="1.1" id="Layer_1" x="0px" y="0px" width="32" height="32" viewBox="0 0 32 32" xml:space="preserve" fill="#000"><path d="M30 6H2a2 2 0 0 0-2 2v18a2 2 0 0 0 2 2h28a2 2 0 0 0 2-2V8a2 2 0 0 0-2-2zM2 8h28v18H2V8zm25.166 8H15a1 1 0 0 0 0 2h12.166a1 1 0 0 0 0-2zm0 4H15a1 1 0 0 0 0 2h12.166a1 1 0 0 0 0-2zm0-8H15a1 1 0 0 0 0 2h12.166a1 1 0 0 0 0-2zm-21.586.416a2.416 2.416 0 1 0 4.832 0 2.416 2.416 0 1 0-4.832 0zm2.468 3.382c-2.184 0-3.952 2.372-3.952 5.3s7.904 2.926 7.904 0-1.77-5.3-3.952-5.3z"/><metadata><rdf:RDF xmlns:rdf="http://www.w3.org/1999/02/22-rdf-syntax-ns#" xmlns:rdfs="http://www.w3.org/2000/01/rdf-schema#" xmlns:dc="http://purl.org/dc/elements/1.1/"><rdf:Description about="https://iconscout.com/legal#licenses" dc:title="id" dc:description="id" dc:publisher="Iconscout" dc:date="2017-09-25" dc:format="image/svg+xml" dc:language="en"><dc:creator><rdf:Bag><rdf:li>Elegant Themes</rdf:li></rdf:Bag></dc:creator></rdf:Description></rdf:RDF></metadata></svg>